<svg id="visual" viewBox="0 0 1500 500" width="1500" height="500" xmlns="http://www.w3.org/2000/svg" xmlns:xlink="http://www.w3.org/1999/xlink" version="1.1"><g stroke-width="1" stroke-linejoin="bevel"><path d="M765 207.9L759 163.3L759 204.3Z" fill="#040405" stroke="#040405"></path><path d="M765 207.9L796 199.9L759 163.3Z" fill="#040405" stroke="#040405"></path><path d="M796 199.9L805 165.3L759 163.3Z" fill="#010102" stroke="#010102"></path><path d="M805 165.3L758 152.9L759 163.3Z" fill="#050506" stroke="#050506"></path><path d="M759 163.3L732 206.3L759 204.3Z" fill="#010102" stroke="#010102"></path><path d="M691 157.9L732 206.3L759 163.3Z" fill="#080809" stroke="#080809"></path><path d="M759 204.3L732 206.3L765 207.9Z" fill="#09090a" stroke="#09090a"></path><path d="M826 282.1L818 222.7L765 207.9Z" fill="#050506" stroke="#050506"></path><path d="M765 207.9L818 222.7L796 199.9Z" fill="#040405" stroke="#040405"></path><path d="M796 199.9L818 222.7L805 165.3Z" fill="#000000" stroke="#000000"></path><path d="M805 165.3L765 107.4L758 152.9Z" fill="#000000" stroke="#000000"></path><path d="M758 152.9L691 157.9L759 163.3Z" fill="#070708" stroke="#070708"></path><path d="M818 222.7L836 132.4L805 165.3Z" fill="#070708" stroke="#070708"></path><path d="M805 165.3L836 132.4L765 107.4Z" fill="#0a0a0b" stroke="#0a0a0b"></path><path d="M765 107.4L691 157.9L758 152.9Z" fill="#09090a" stroke="#09090a"></path><path d="M810 333.1L826 282.1L756 363.6Z" fill="#030304" stroke="#030304"></path><path d="M818 222.7L950 215.7L836 132.4Z" fill="#020203" stroke="#020203"></path><path d="M826 282.1L845 274.7L818 222.7Z" fill="#0a0a0b" stroke="#0a0a0b"></path><path d="M689 14.4L657 153.4L691 157.9Z" fill="#060607" stroke="#060607"></path><path d="M691 157.9L622 229.3L732 206.3Z" fill="#080809" stroke="#080809"></path><path d="M756 363.6L826 282.1L765 207.9Z" fill="#010102" stroke="#010102"></path><path d="M836 132.4L823 42.9L765 107.4Z" fill="#0a0a0b" stroke="#0a0a0b"></path><path d="M765 107.4L689 14.4L691 157.9Z" fill="#070708" stroke="#070708"></path><path d="M756 363.6L765 207.9L732 206.3Z" fill="#000000" stroke="#000000"></path><path d="M826 282.1L810 333.1L845 274.7Z" fill="#050506" stroke="#050506"></path><path d="M657 153.4L622 229.3L691 157.9Z" fill="#09090a" stroke="#09090a"></path><path d="M622 229.3L668 309.1L732 206.3Z" fill="#020203" stroke="#020203"></path><path d="M568 117.4L601 175.3L657 153.4Z" fill="#050506" stroke="#050506"></path><path d="M657 153.4L601 175.3L622 229.3Z" fill="#020203" stroke="#020203"></path><path d="M999 249.7L950 215.7L845 274.7Z" fill="#000000" stroke="#000000"></path><path d="M845 274.7L950 215.7L818 222.7Z" fill="#040405" stroke="#040405"></path><path d="M836 132.4L952 128.4L823 42.9Z" fill="#060607" stroke="#060607"></path><path d="M668 309.1L756 363.6L732 206.3Z" fill="#080809" stroke="#080809"></path><path d="M950 215.7L952 128.4L836 132.4Z" fill="#040405" stroke="#040405"></path><path d="M823 42.9L689 14.4L765 107.4Z" fill="#060607" stroke="#060607"></path><path d="M597 311.7L649 344.6L668 309.1Z" fill="#0a0a0b" stroke="#0a0a0b"></path><path d="M668 309.1L652 360.7L756 363.6Z" fill="#040405" stroke="#040405"></path><path d="M597 311.7L668 309.1L622 229.3Z" fill="#030304" stroke="#030304"></path><path d="M823 42.9L676 0L689 14.4Z" fill="#020203" stroke="#020203"></path><path d="M618 0L568 117.4L657 153.4Z" fill="#080809" stroke="#080809"></path><path d="M579 395.1L652 360.7L649 344.6Z" fill="#070708" stroke="#070708"></path><path d="M649 344.6L652 360.7L668 309.1Z" fill="#010102" stroke="#010102"></path><path d="M618 0L657 153.4L689 14.4Z" fill="#09090a" stroke="#09090a"></path><path d="M563 303.7L597 311.7L622 229.3Z" fill="#000000" stroke="#000000"></path><path d="M999 249.7L993 185.3L950 215.7Z" fill="#030304" stroke="#030304"></path><path d="M950 215.7L993 185.3L952 128.4Z" fill="#080809" stroke="#080809"></path><path d="M952 128.4L894 0L823 42.9Z" fill="#010102" stroke="#010102"></path><path d="M823 42.9L894 0L676 0Z" fill="#030304" stroke="#030304"></path><path d="M964 9.4L894 0L952 128.4Z" fill="#09090a" stroke="#09090a"></path><path d="M547 197.9L622 229.3L601 175.3Z" fill="#080809" stroke="#080809"></path><path d="M568 117.4L547 197.9L601 175.3Z" fill="#080809" stroke="#080809"></path><path d="M756 363.6L793 413.6L810 333.1Z" fill="#060607" stroke="#060607"></path><path d="M944 427.1L999 249.7L845 274.7Z" fill="#060607" stroke="#060607"></path><path d="M692 500L793 413.6L756 363.6Z" fill="#050506" stroke="#050506"></path><path d="M944 427.1L845 274.7L810 333.1Z" fill="#020203" stroke="#020203"></path><path d="M676 0L618 0L689 14.4Z" fill="#060607" stroke="#060607"></path><path d="M597 311.7L579 395.1L649 344.6Z" fill="#040405" stroke="#040405"></path><path d="M547 197.9L563 303.7L622 229.3Z" fill="#050506" stroke="#050506"></path><path d="M618 0L613 0L568 117.4Z" fill="#09090a" stroke="#09090a"></path><path d="M1044 129.3L964 9.4L952 128.4Z" fill="#030304" stroke="#030304"></path><path d="M964 9.4L961 0L894 0Z" fill="#040405" stroke="#040405"></path><path d="M999 249.7L1040 217.9L993 185.3Z" fill="#070708" stroke="#070708"></path><path d="M993 185.3L1044 129.3L952 128.4Z" fill="#060607" stroke="#060607"></path><path d="M964 9.4L973 0L961 0Z" fill="#030304" stroke="#030304"></path><path d="M1077 285.1L1040 217.9L999 249.7Z" fill="#040405" stroke="#040405"></path><path d="M1040 217.9L1044 163.9L993 185.3Z" fill="#010102" stroke="#010102"></path><path d="M974 0L973 0L964 9.4Z" fill="#09090a" stroke="#09090a"></path><path d="M1035 0L974 0L964 9.4Z" fill="#030304" stroke="#030304"></path><path d="M568 117.4L505 204.3L547 197.9Z" fill="#000000" stroke="#000000"></path><path d="M547 197.9L505 204.3L563 303.7Z" fill="#09090a" stroke="#09090a"></path><path d="M467 192.7L505 204.3L568 117.4Z" fill="#09090a" stroke="#09090a"></path><path d="M974 0L959 -17.6L973 0Z" fill="#030304" stroke="#030304"></path><path d="M973 0L959 -17.6L961 0Z" fill="#050506" stroke="#050506"></path><path d="M961 0L959 -17.6L894 0Z" fill="#09090a" stroke="#09090a"></path><path d="M894 0L959 -17.6L676 0Z" fill="#030304" stroke="#030304"></path><path d="M676 0L959 -17.6L618 0Z" fill="#060607" stroke="#060607"></path><path d="M618 0L959 -17.6L613 0Z" fill="#040405" stroke="#040405"></path><path d="M1044 163.9L1044 129.3L993 185.3Z" fill="#000000" stroke="#000000"></path><path d="M793 413.6L874 441.1L810 333.1Z" fill="#070708" stroke="#070708"></path><path d="M506 444.1L579 395.1L563 303.7Z" fill="#050506" stroke="#050506"></path><path d="M563 303.7L579 395.1L597 311.7Z" fill="#09090a" stroke="#09090a"></path><path d="M652 360.7L692 500L756 363.6Z" fill="#09090a" stroke="#09090a"></path><path d="M793 413.6L870 500L874 441.1Z" fill="#050506" stroke="#050506"></path><path d="M874 441.1L944 427.1L810 333.1Z" fill="#080809" stroke="#080809"></path><path d="M959 -17.6L532 0L613 0Z" fill="#040405" stroke="#040405"></path><path d="M613 0L532 0L568 117.4Z" fill="#030304" stroke="#030304"></path><path d="M361 102.4L467 192.7L568 117.4Z" fill="#020203" stroke="#020203"></path><path d="M505 204.3L396 245.3L563 303.7Z" fill="#020203" stroke="#020203"></path><path d="M506 444.1L592 442.6L579 395.1Z" fill="#080809" stroke="#080809"></path><path d="M579 395.1L592 442.6L652 360.7Z" fill="#0a0a0b" stroke="#0a0a0b"></path><path d="M1044 129.3L1035 0L964 9.4Z" fill="#080809" stroke="#080809"></path><path d="M974 0L1035 0L959 -17.6Z" fill="#010102" stroke="#010102"></path><path d="M1075 362.7L1077 285.1L999 249.7Z" fill="#050506" stroke="#050506"></path><path d="M1120 171.9L1109 127.9L1044 163.9Z" fill="#070708" stroke="#070708"></path><path d="M1044 163.9L1109 127.9L1044 129.3Z" fill="#030304" stroke="#030304"></path><path d="M1044 129.3L1109 127.9L1035 0Z" fill="#010102" stroke="#010102"></path><path d="M1077 285.1L1085 265.3L1040 217.9Z" fill="#060607" stroke="#060607"></path><path d="M659 500L692 500L652 360.7Z" fill="#040405" stroke="#040405"></path><path d="M874 441.1L932 500L944 427.1Z" fill="#070708" stroke="#070708"></path><path d="M692 500L870 500L793 413.6Z" fill="#030304" stroke="#030304"></path><path d="M870 500L886 500L874 441.1Z" fill="#09090a" stroke="#09090a"></path><path d="M944 427.1L1057 387.6L999 249.7Z" fill="#080809" stroke="#080809"></path><path d="M592 442.6L659 500L652 360.7Z" fill="#09090a" stroke="#09090a"></path><path d="M1120 171.9L1044 163.9L1040 217.9Z" fill="#020203" stroke="#020203"></path><path d="M1085 265.3L1120 171.9L1040 217.9Z" fill="#080809" stroke="#080809"></path><path d="M870 500L902 507.6L886 500Z" fill="#080809" stroke="#080809"></path><path d="M886 500L932 500L874 441.1Z" fill="#070708" stroke="#070708"></path><path d="M692 500L902 507.6L870 500Z" fill="#070708" stroke="#070708"></path><path d="M484 524.6L902 507.6L692 500Z" fill="#020203" stroke="#020203"></path><path d="M1077 285.1L1127 329.1L1085 265.3Z" fill="#010102" stroke="#010102"></path><path d="M1085 265.3L1201 321.7L1120 171.9Z" fill="#070708" stroke="#070708"></path><path d="M1025 446.1L1057 387.6L944 427.1Z" fill="#040405" stroke="#040405"></path><path d="M1057 387.6L1075 362.7L999 249.7Z" fill="#030304" stroke="#030304"></path><path d="M902 507.6L932 500L886 500Z" fill="#000000" stroke="#000000"></path><path d="M1009 500L1025 446.1L944 427.1Z" fill="#080809" stroke="#080809"></path><path d="M1103 391.6L1127 329.1L1075 362.7Z" fill="#080809" stroke="#080809"></path><path d="M400 412.6L506 444.1L563 303.7Z" fill="#0a0a0b" stroke="#0a0a0b"></path><path d="M592 442.6L521 500L659 500Z" fill="#040405" stroke="#040405"></path><path d="M1103 391.6L1075 362.7L1057 387.6Z" fill="#020203" stroke="#020203"></path><path d="M1075 362.7L1127 329.1L1077 285.1Z" fill="#09090a" stroke="#09090a"></path><path d="M358 173.9L396 245.3L467 192.7Z" fill="#040405" stroke="#040405"></path><path d="M467 192.7L396 245.3L505 204.3Z" fill="#050506" stroke="#050506"></path><path d="M1025 446.1L1103 391.6L1057 387.6Z" fill="#060607" stroke="#060607"></path><path d="M932 500L1009 500L944 427.1Z" fill="#010102" stroke="#010102"></path><path d="M1025 446.1L1127 474.6L1103 391.6Z" fill="#060607" stroke="#060607"></path><path d="M902 507.6L1009 500L932 500Z" fill="#020203" stroke="#020203"></path><path d="M484 524.6L521 500L506 444.1Z" fill="#030304" stroke="#030304"></path><path d="M506 444.1L521 500L592 442.6Z" fill="#09090a" stroke="#09090a"></path><path d="M659 500L484 524.6L692 500Z" fill="#020203" stroke="#020203"></path><path d="M959 -17.6L402 0L532 0Z" fill="#000000" stroke="#000000"></path><path d="M532 0L402 0L568 117.4Z" fill="#070708" stroke="#070708"></path><path d="M354 145.9L358 173.9L467 192.7Z" fill="#020203" stroke="#020203"></path><path d="M396 245.3L363 296.1L563 303.7Z" fill="#060607" stroke="#060607"></path><path d="M402 0L361 102.4L568 117.4Z" fill="#030304" stroke="#030304"></path><path d="M361 102.4L354 145.9L467 192.7Z" fill="#070708" stroke="#070708"></path><path d="M1212 138.4L1109 127.9L1120 171.9Z" fill="#080809" stroke="#080809"></path><path d="M1212 138.4L1159 0L1109 127.9Z" fill="#060607" stroke="#060607"></path><path d="M1109 127.9L1159 0L1035 0Z" fill="#080809" stroke="#080809"></path><path d="M1035 0L1159 0L959 -17.6Z" fill="#060607" stroke="#060607"></path><path d="M355 349.7L363 296.1L323 367.6Z" fill="#000000" stroke="#000000"></path><path d="M358 173.9L363 296.1L396 245.3Z" fill="#030304" stroke="#030304"></path><path d="M278 152.4L285 162.9L354 145.9Z" fill="#010102" stroke="#010102"></path><path d="M402 0L375 14.4L361 102.4Z" fill="#000000" stroke="#000000"></path><path d="M1103 391.6L1178 349.7L1127 329.1Z" fill="#030304" stroke="#030304"></path><path d="M1127 329.1L1201 321.7L1085 265.3Z" fill="#030304" stroke="#030304"></path><path d="M1127 474.6L1178 349.7L1103 391.6Z" fill="#010102" stroke="#010102"></path><path d="M902 507.6L1076 500L1009 500Z" fill="#010102" stroke="#010102"></path><path d="M1009 500L1076 500L1025 446.1Z" fill="#0a0a0b" stroke="#0a0a0b"></path><path d="M959 -17.6L378 0L402 0Z" fill="#020203" stroke="#020203"></path><path d="M402 0L378 0L375 14.4Z" fill="#020203" stroke="#020203"></path><path d="M1253 293.7L1212 138.4L1120 171.9Z" fill="#080809" stroke="#080809"></path><path d="M363 296.1L400 412.6L563 303.7Z" fill="#080809" stroke="#080809"></path><path d="M1253 293.7L1201 321.7L1301 379.7Z" fill="#080809" stroke="#080809"></path><path d="M1178 349.7L1201 321.7L1127 329.1Z" fill="#030304" stroke="#030304"></path><path d="M436 500L484 524.6L506 444.1Z" fill="#080809" stroke="#080809"></path><path d="M521 500L484 524.6L659 500Z" fill="#040405" stroke="#040405"></path><path d="M323 367.6L363 296.1L257 299.7Z" fill="#050506" stroke="#050506"></path><path d="M363 296.1L355 349.7L400 412.6Z" fill="#070708" stroke="#070708"></path><path d="M1076 500L1127 474.6L1025 446.1Z" fill="#000000" stroke="#000000"></path><path d="M375 14.4L353 0L361 102.4Z" fill="#060607" stroke="#060607"></path><path d="M285 162.9L363 296.1L358 173.9Z" fill="#060607" stroke="#060607"></path><path d="M378 0L353 0L375 14.4Z" fill="#050506" stroke="#050506"></path><path d="M959 -17.6L353 0L378 0Z" fill="#040405" stroke="#040405"></path><path d="M355 349.7L373 413.1L400 412.6Z" fill="#020203" stroke="#020203"></path><path d="M400 412.6L436 500L506 444.1Z" fill="#030304" stroke="#030304"></path><path d="M373 413.1L436 500L400 412.6Z" fill="#000000" stroke="#000000"></path><path d="M1076 500L1129 497.6L1127 474.6Z" fill="#0a0a0b" stroke="#0a0a0b"></path><path d="M1127 474.6L1233 500L1178 349.7Z" fill="#070708" stroke="#070708"></path><path d="M285 162.9L358 173.9L354 145.9Z" fill="#030304" stroke="#030304"></path><path d="M355 349.7L323 367.6L373 413.1Z" fill="#09090a" stroke="#09090a"></path><path d="M373 413.1L282 500L436 500Z" fill="#060607" stroke="#060607"></path><path d="M1253 293.7L1264 151.3L1212 138.4Z" fill="#0a0a0b" stroke="#0a0a0b"></path><path d="M1212 138.4L1287 76.4L1159 0Z" fill="#040405" stroke="#040405"></path><path d="M1301 379.7L1201 321.7L1178 349.7Z" fill="#000000" stroke="#000000"></path><path d="M1201 321.7L1253 293.7L1120 171.9Z" fill="#0a0a0b" stroke="#0a0a0b"></path><path d="M278 152.4L354 145.9L361 102.4Z" fill="#0a0a0b" stroke="#0a0a0b"></path><path d="M260 72.4L278 152.4L361 102.4Z" fill="#050506" stroke="#050506"></path><path d="M285 162.9L257 299.7L363 296.1Z" fill="#010102" stroke="#010102"></path><path d="M271 393.6L316 407.1L323 367.6Z" fill="#09090a" stroke="#09090a"></path><path d="M323 367.6L316 407.1L373 413.1Z" fill="#010102" stroke="#010102"></path><path d="M1293 261.1L1287 170.4L1264 151.3Z" fill="#050506" stroke="#050506"></path><path d="M1264 151.3L1287 76.4L1212 138.4Z" fill="#040405" stroke="#040405"></path><path d="M1287 170.4L1287 76.4L1264 151.3Z" fill="#050506" stroke="#050506"></path><path d="M1253 293.7L1293 261.1L1264 151.3Z" fill="#000000" stroke="#000000"></path><path d="M1287 170.4L1375 158.9L1287 76.4Z" fill="#0a0a0b" stroke="#0a0a0b"></path><path d="M1338 303.3L1293 261.1L1253 293.7Z" fill="#070708" stroke="#070708"></path><path d="M353 0L260 72.4L361 102.4Z" fill="#000000" stroke="#000000"></path><path d="M218 202.3L257 299.7L285 162.9Z" fill="#09090a" stroke="#09090a"></path><path d="M218 202.3L285 162.9L278 152.4Z" fill="#0a0a0b" stroke="#0a0a0b"></path><path d="M271 393.6L299 439.1L316 407.1Z" fill="#060607" stroke="#060607"></path><path d="M316 407.1L299 439.1L373 413.1Z" fill="#09090a" stroke="#09090a"></path><path d="M436 500L282 500L484 524.6Z" fill="#09090a" stroke="#09090a"></path><path d="M262 383.7L271 393.6L323 367.6Z" fill="#020203" stroke="#020203"></path><path d="M1293 261.1L1324 199.3L1287 170.4Z" fill="#09090a" stroke="#09090a"></path><path d="M257 299.7L262 383.7L323 367.6Z" fill="#050506" stroke="#050506"></path><path d="M281 500L282 500L299 439.1Z" fill="#070708" stroke="#070708"></path><path d="M1076 500L1233 500L1129 497.6Z" fill="#050506" stroke="#050506"></path><path d="M1129 497.6L1233 500L1127 474.6Z" fill="#000000" stroke="#000000"></path><path d="M1353 234.7L1351 197.9L1324 199.3Z" fill="#080809" stroke="#080809"></path><path d="M1500 525.6L1233 500L1076 500Z" fill="#0a0a0b" stroke="#0a0a0b"></path><path d="M1328 500L1233 500L1500 525.6Z" fill="#0a0a0b" stroke="#0a0a0b"></path><path d="M199 73.4L218 202.3L278 152.4Z" fill="#0a0a0b" stroke="#0a0a0b"></path><path d="M257 299.7L91 354.7L262 383.7Z" fill="#070708" stroke="#070708"></path><path d="M1286 430.6L1301 379.7L1178 349.7Z" fill="#050506" stroke="#050506"></path><path d="M1233 500L1286 430.6L1178 349.7Z" fill="#040405" stroke="#040405"></path><path d="M1350 0L1312 -6.6L1287 76.4Z" fill="#030304" stroke="#030304"></path><path d="M1287 76.4L1312 -6.6L1159 0Z" fill="#030304" stroke="#030304"></path><path d="M1159 0L1312 -6.6L959 -17.6Z" fill="#010102" stroke="#010102"></path><path d="M1354 319.1L1338 303.3L1301 379.7Z" fill="#050506" stroke="#050506"></path><path d="M1301 379.7L1338 303.3L1253 293.7Z" fill="#040405" stroke="#040405"></path><path d="M1324 199.3L1375 158.9L1287 170.4Z" fill="#010102" stroke="#010102"></path><path d="M1353 234.7L1324 199.3L1293 261.1Z" fill="#080809" stroke="#080809"></path><path d="M1338 303.3L1353 234.7L1293 261.1Z" fill="#050506" stroke="#050506"></path><path d="M299 439.1L282 500L373 413.1Z" fill="#0a0a0b" stroke="#0a0a0b"></path><path d="M281 500L299 439.1L232 500Z" fill="#030304" stroke="#030304"></path><path d="M299 439.1L205 475.6L232 500Z" fill="#020203" stroke="#020203"></path><path d="M177 0L199 73.4L260 72.4Z" fill="#020203" stroke="#020203"></path><path d="M260 72.4L199 73.4L278 152.4Z" fill="#030304" stroke="#030304"></path><path d="M299 439.1L271 393.6L205 475.6Z" fill="#070708" stroke="#070708"></path><path d="M282 500L281 500L484 524.6Z" fill="#000000" stroke="#000000"></path><path d="M1433 410.1L1354 319.1L1301 379.7Z" fill="#010102" stroke="#010102"></path><path d="M1338 303.3L1354 319.1L1353 234.7Z" fill="#060607" stroke="#060607"></path><path d="M1396 171.3L1351 197.9L1400 216.9Z" fill="#09090a" stroke="#09090a"></path><path d="M1396 171.3L1375 158.9L1351 197.9Z" fill="#070708" stroke="#070708"></path><path d="M1351 197.9L1375 158.9L1324 199.3Z" fill="#030304" stroke="#030304"></path><path d="M1414 45.4L1350 0L1287 76.4Z" fill="#080809" stroke="#080809"></path><path d="M150 218.3L167 234.3L147 204.9Z" fill="#080809" stroke="#080809"></path><path d="M218 202.3L167 234.3L257 299.7Z" fill="#040405" stroke="#040405"></path><path d="M1400 216.9L1351 197.9L1353 234.7Z" fill="#080809" stroke="#080809"></path><path d="M1375 158.9L1414 45.4L1287 76.4Z" fill="#020203" stroke="#020203"></path><path d="M1354 319.1L1400 216.9L1353 234.7Z" fill="#0a0a0b" stroke="#0a0a0b"></path><path d="M353 0L177 0L260 72.4Z" fill="#040405" stroke="#040405"></path><path d="M147 204.9L167 234.3L218 202.3Z" fill="#0a0a0b" stroke="#0a0a0b"></path><path d="M959 -17.6L177 0L353 0Z" fill="#000000" stroke="#000000"></path><path d="M150 125.3L218 202.3L199 73.4Z" fill="#030304" stroke="#030304"></path><path d="M205 475.6L271 393.6L262 383.7Z" fill="#010102" stroke="#010102"></path><path d="M137 31.4L150 125.3L199 73.4Z" fill="#020203" stroke="#020203"></path><path d="M205 475.6L103 417.1L162 488.6Z" fill="#010102" stroke="#010102"></path><path d="M281 500L232 500L484 524.6Z" fill="#030304" stroke="#030304"></path><path d="M150 125.3L147 204.9L218 202.3Z" fill="#0a0a0b" stroke="#0a0a0b"></path><path d="M177 0L137 31.4L199 73.4Z" fill="#070708" stroke="#070708"></path><path d="M959 -17.6L173 0L177 0Z" fill="#070708" stroke="#070708"></path><path d="M1286 430.6L1433 410.1L1301 379.7Z" fill="#060607" stroke="#060607"></path><path d="M1500 256.7L1500 239.9L1400 216.9Z" fill="#040405" stroke="#040405"></path><path d="M1233 500L1328 500L1286 430.6Z" fill="#070708" stroke="#070708"></path><path d="M1385 500L1328 500L1500 525.6Z" fill="#010102" stroke="#010102"></path><path d="M91 354.7L167 234.3L150 218.3Z" fill="#000000" stroke="#000000"></path><path d="M205 475.6L262 383.7L103 417.1Z" fill="#020203" stroke="#020203"></path><path d="M205 475.6L216 500L232 500Z" fill="#020203" stroke="#020203"></path><path d="M232 500L216 500L484 524.6Z" fill="#030304" stroke="#030304"></path><path d="M1396 171.3L1414 45.4L1375 158.9Z" fill="#070708" stroke="#070708"></path><path d="M1500 197.3L1414 45.4L1396 171.3Z" fill="#020203" stroke="#020203"></path><path d="M173 0L137 31.4L177 0Z" fill="#0a0a0b" stroke="#0a0a0b"></path><path d="M150 125.3L106 191.7L147 204.9Z" fill="#060607" stroke="#060607"></path><path d="M85 145.9L106 191.7L150 125.3Z" fill="#010102" stroke="#010102"></path><path d="M147 204.9L106 191.7L150 218.3Z" fill="#060607" stroke="#060607"></path><path d="M1500 28.4L1430 0L1414 45.4Z" fill="#070708" stroke="#070708"></path><path d="M1414 45.4L1430 0L1350 0Z" fill="#040405" stroke="#040405"></path><path d="M1350 0L1430 0L1312 -6.6Z" fill="#020203" stroke="#020203"></path><path d="M91 354.7L257 299.7L167 234.3Z" fill="#010102" stroke="#010102"></path><path d="M205 475.6L162 488.6L216 500Z" fill="#070708" stroke="#070708"></path><path d="M1500 525.6L1076 500L902 507.6Z" fill="#020203" stroke="#020203"></path><path d="M1328 500L1385 500L1286 430.6Z" fill="#050506" stroke="#050506"></path><path d="M1400 216.9L1500 197.3L1396 171.3Z" fill="#0a0a0b" stroke="#0a0a0b"></path><path d="M96 44.9L85 145.9L150 125.3Z" fill="#050506" stroke="#050506"></path><path d="M106 191.7L91 354.7L150 218.3Z" fill="#0a0a0b" stroke="#0a0a0b"></path><path d="M0 0L96 44.9L137 31.4Z" fill="#050506" stroke="#050506"></path><path d="M137 31.4L96 44.9L150 125.3Z" fill="#010102" stroke="#010102"></path><path d="M1385 500L1433 410.1L1286 430.6Z" fill="#080809" stroke="#080809"></path><path d="M1433 410.1L1444 380.6L1354 319.1Z" fill="#030304" stroke="#030304"></path><path d="M40 359.6L91 354.7L0 322.1Z" fill="#080809" stroke="#080809"></path><path d="M91 354.7L103 417.1L262 383.7Z" fill="#09090a" stroke="#09090a"></path><path d="M1500 239.9L1500 197.3L1400 216.9Z" fill="#09090a" stroke="#09090a"></path><path d="M1500 256.7L1400 216.9L1500 260.1Z" fill="#030304" stroke="#030304"></path><path d="M1400 216.9L1354 319.1L1500 260.1Z" fill="#070708" stroke="#070708"></path><path d="M1500 260.1L1354 319.1L1444 380.6Z" fill="#09090a" stroke="#09090a"></path><path d="M1500 500L1500 260.1L1444 380.6Z" fill="#080809" stroke="#080809"></path><path d="M1500 197.3L1500 28.4L1414 45.4Z" fill="#060607" stroke="#060607"></path><path d="M1500 28.4L1500 0L1430 0Z" fill="#050506" stroke="#050506"></path><path d="M1430 0L1500 0L1312 -6.6Z" fill="#040405" stroke="#040405"></path><path d="M0 227.3L91 354.7L106 191.7Z" fill="#060607" stroke="#060607"></path><path d="M91 354.7L40 359.6L103 417.1Z" fill="#0a0a0b" stroke="#0a0a0b"></path><path d="M103 417.1L10 500L162 488.6Z" fill="#030304" stroke="#030304"></path><path d="M26 383.1L40 359.6L0 375.7Z" fill="#040405" stroke="#040405"></path><path d="M1385 500L1466 492.6L1433 410.1Z" fill="#050506" stroke="#050506"></path><path d="M1433 410.1L1500 500L1444 380.6Z" fill="#080809" stroke="#080809"></path><path d="M1500 197.3L1516 0L1500 28.4Z" fill="#080809" stroke="#080809"></path><path d="M1500 28.4L1516 0L1500 0Z" fill="#000000" stroke="#000000"></path><path d="M1500 0L1516 0L1312 -6.6Z" fill="#050506" stroke="#050506"></path><path d="M1500 239.9L1516 0L1500 197.3Z" fill="#09090a" stroke="#09090a"></path><path d="M1500 256.7L1516 0L1500 239.9Z" fill="#020203" stroke="#020203"></path><path d="M1500 260.1L1516 0L1500 256.7Z" fill="#000000" stroke="#000000"></path><path d="M0 227.3L106 191.7L85 145.9Z" fill="#050506" stroke="#050506"></path><path d="M40 359.6L26 383.1L103 417.1Z" fill="#070708" stroke="#070708"></path><path d="M0 101.9L0 153.4L85 145.9Z" fill="#020203" stroke="#020203"></path><path d="M0 153.4L0 227.3L85 145.9Z" fill="#000000" stroke="#000000"></path><path d="M96 44.9L0 101.9L85 145.9Z" fill="#070708" stroke="#070708"></path><path d="M1500 525.6L1466 492.6L1385 500Z" fill="#09090a" stroke="#09090a"></path><path d="M1500 525.6L1492 500L1466 492.6Z" fill="#070708" stroke="#070708"></path><path d="M1466 492.6L1500 500L1433 410.1Z" fill="#0a0a0b" stroke="#0a0a0b"></path><path d="M1500 260.1L1500 500L1516 0Z" fill="#0a0a0b" stroke="#0a0a0b"></path><path d="M0 227.3L0 322.1L91 354.7Z" fill="#020203" stroke="#020203"></path><path d="M1500 525.6L1500 500L1492 500Z" fill="#060607" stroke="#060607"></path><path d="M1492 500L1500 500L1466 492.6Z" fill="#0a0a0b" stroke="#0a0a0b"></path><path d="M173 0L0 0L137 31.4Z" fill="#000000" stroke="#000000"></path><path d="M96 44.9L0 0L0 101.9Z" fill="#050506" stroke="#050506"></path><path d="M959 -17.6L0 0L173 0Z" fill="#050506" stroke="#050506"></path><path d="M0 322.1L0 375.7L40 359.6Z" fill="#020203" stroke="#020203"></path><path d="M26 383.1L0 454.6L103 417.1Z" fill="#020203" stroke="#020203"></path><path d="M484 524.6L1500 525.6L902 507.6Z" fill="#050506" stroke="#050506"></path><path d="M1500 500L1500 525.6L1516 0Z" fill="#040405" stroke="#040405"></path><path d="M959 -17.6L-9 0L0 0Z" fill="#030304" stroke="#030304"></path><path d="M0 0L-9 0L0 101.9Z" fill="#000000" stroke="#000000"></path><path d="M0 101.9L-9 0L0 153.4Z" fill="#070708" stroke="#070708"></path><path d="M0 153.4L-9 0L0 227.3Z" fill="#010102" stroke="#010102"></path><path d="M0 227.3L-9 0L0 322.1Z" fill="#09090a" stroke="#09090a"></path><path d="M0 322.1L-9 0L0 375.7Z" fill="#050506" stroke="#050506"></path><path d="M-9 0L0 454.6L0 375.7Z" fill="#030304" stroke="#030304"></path><path d="M0 375.7L0 454.6L26 383.1Z" fill="#070708" stroke="#070708"></path><path d="M162 488.6L10 500L216 500Z" fill="#080809" stroke="#080809"></path><path d="M0 454.6L10 500L103 417.1Z" fill="#050506" stroke="#050506"></path><path d="M216 500L10 500L484 524.6Z" fill="#050506" stroke="#050506"></path><path d="M-9 0L0 500L0 454.6Z" fill="#000000" stroke="#000000"></path><path d="M0 454.6L0 500L10 500Z" fill="#000000" stroke="#000000"></path><path d="M10 500L0 500L484 524.6Z" fill="#050506" stroke="#050506"></path></g></svg>