<svg id="visual" viewBox="0 0 300 200" width="300" height="200" xmlns="http://www.w3.org/2000/svg" xmlns:xlink="http://www.w3.org/1999/xlink" version="1.1"><rect x="0" y="0" width="300" height="200" fill="#002233"></rect><path d="M0 145L3 144.2C6 143.3 12 141.7 17.8 141.7C23.7 141.7 29.3 143.3 35.2 138.5C41 133.7 47 122.3 53 121.5C59 120.7 65 130.3 70.8 135.3C76.7 140.3 82.3 140.7 88.2 135.7C94 130.7 100 120.3 106 119C112 117.7 118 125.3 123.8 127.2C129.7 129 135.3 125 141.2 123C147 121 153 121 158.8 125.8C164.7 130.7 170.3 140.3 176.2 142.2C182 144 188 138 194 135.7C200 133.3 206 134.7 211.8 137.3C217.7 140 223.3 144 229.2 145C235 146 241 144 247 144C253 144 259 146 264.8 144.8C270.7 143.7 276.3 139.3 282.2 137.7C288 136 294 137 297 137.5L300 138L300 201L297 201C294 201 288 201 282.2 201C276.3 201 270.7 201 264.8 201C259 201 253 201 247 201C241 201 235 201 229.2 201C223.3 201 217.7 201 211.8 201C206 201 200 201 194 201C188 201 182 201 176.2 201C170.3 201 164.7 201 158.8 201C153 201 147 201 141.2 201C135.3 201 129.7 201 123.8 201C118 201 112 201 106 201C100 201 94 201 88.2 201C82.3 201 76.7 201 70.8 201C65 201 59 201 53 201C47 201 41 201 35.2 201C29.3 201 23.7 201 17.8 201C12 201 6 201 3 201L0 201Z" fill="#0066FF" stroke-linecap="round" stroke-linejoin="miter"></path></svg>