<svg id="visual" viewBox="0 0 900 600" width="900" height="600" xmlns="http://www.w3.org/2000/svg" xmlns:xlink="http://www.w3.org/1999/xlink" version="1.1"><path d="M0 470L8.3 473.7C16.7 477.3 33.3 484.7 50 486.3C66.7 488 83.3 484 100 477.3C116.7 470.7 133.3 461.3 150 461.7C166.7 462 183.3 472 200 474.2C216.7 476.3 233.3 470.7 250 468.8C266.7 467 283.3 469 300 474C316.7 479 333.3 487 350 493.3C366.7 499.7 383.3 504.3 400 501.2C416.7 498 433.3 487 450 478.3C466.7 469.7 483.3 463.3 500 458.8C516.7 454.3 533.3 451.7 550 455.7C566.7 459.7 583.3 470.3 600 477.7C616.7 485 633.3 489 650 487.2C666.7 485.3 683.3 477.7 700 477.8C716.7 478 733.3 486 750 482.3C766.7 478.7 783.3 463.3 800 463.8C816.7 464.3 833.3 480.7 850 481.2C866.7 481.7 883.3 466.3 891.7 458.7L900 451L900 601L891.7 601C883.3 601 866.7 601 850 601C833.3 601 816.7 601 800 601C783.3 601 766.7 601 750 601C733.3 601 716.7 601 700 601C683.3 601 666.7 601 650 601C633.3 601 616.7 601 600 601C583.3 601 566.7 601 550 601C533.3 601 516.7 601 500 601C483.3 601 466.7 601 450 601C433.3 601 416.7 601 400 601C383.3 601 366.7 601 350 601C333.3 601 316.7 601 300 601C283.3 601 266.7 601 250 601C233.3 601 216.7 601 200 601C183.3 601 166.7 601 150 601C133.3 601 116.7 601 100 601C83.3 601 66.7 601 50 601C33.3 601 16.7 601 8.3 601L0 601Z" fill="#FFFFFF" stroke-linecap="round" stroke-linejoin="miter"></path></svg>